<svg width="574" height="87" viewBox="0 0 574 87" fill="none" xmlns="http://www.w3.org/2000/svg">
<path d="M11.4809 25.6421V72.1184H63.719L11.4809 25.6421ZM0 0L68.8854 61.2434V3.43421H80.3663V83.5658H0V0Z" fill="white"/>
<path d="M137.748 25.6421V61.3579L157.84 43.5L137.748 25.6421ZM126.267 3.43421H206.634V14.8816H142.915L175.061 43.5L142.915 72.1184H206.634V83.5658H126.267V3.43421Z" fill="white"/>
<path d="M281.282 16.2553L253.957 43.5L281.282 70.7447L308.607 43.5L281.282 16.2553ZM281.282 0L324.909 43.5L281.282 87L237.655 43.5L281.282 0Z" fill="white"/>
<path d="M367.366 3.43421H407.549L451.177 43.5L407.549 83.5658H367.366V3.43421ZM378.847 72.1184H402.957L434.185 43.5L402.957 14.8816H378.847V72.1184Z" fill="white"/>
<path d="M505.115 25.6421V61.3579L525.206 43.5L505.115 25.6421ZM493.634 3.43421H574V14.8816H510.281L542.428 43.5L510.281 72.1184H574V83.5658H493.634V3.43421Z" fill="white"/>
</svg>
